HIERARCHY
ROOT Hips
{
  OFFSET 0.0421244 104.207 2.34514
  CHANNELS 6 Xposition Yposition Zposition Zrotation Xrotation Yrotation
  JOINT Spine
  {
    OFFSET 0 10.1816 0.131521
    CHANNELS 6 Xposition Yposition Zposition Zrotation Xrotation Yrotation
    JOINT Spine1
    {
      OFFSET 0 10.0835 -1.0008
      CHANNELS 6 Xposition Yposition Zposition Zrotation Xrotation Yrotation
      JOINT Spine2
      {
        OFFSET 0 9.10001 -1.37342
        CHANNELS 6 Xposition Yposition Zposition Zrotation Xrotation Yrotation
        JOINT Neck
        {
          OFFSET 0 16.6717 -2.51617
          CHANNELS 6 Xposition Yposition Zposition Zrotation Xrotation Yrotation
          JOINT Head
          {
            OFFSET 0 9.61788 1.68501
            CHANNELS 6 Xposition Yposition Zposition Zrotation Xrotation Yrotation
            JOINT HeadTop_End
            {
              OFFSET 0 17.8152 2.58499
              CHANNELS 6 Xposition Yposition Zposition Zrotation Xrotation Yrotation
              End Site
              {
                OFFSET 0 0 0
              }
            }
            JOINT LeftEye
            {
              OFFSET 3.06756 6.40951 9.28355
              CHANNELS 6 Xposition Yposition Zposition Zrotation Xrotation Yrotation
              End Site
              {
                OFFSET 0 0 0
              }
            }
            JOINT RightEye
            {
              OFFSET -3.06755 6.4095 9.28355
              CHANNELS 6 Xposition Yposition Zposition Zrotation Xrotation Yrotation
              End Site
              {
                OFFSET 0 0 0
              }
            }
          }
        }
        JOINT LeftShoulder
        {
          OFFSET 4.57045 10.946 -2.62799
          CHANNELS 6 Xposition Yposition Zposition Zrotation Xrotation Yrotation
          JOINT LeftArm
          {
            OFFSET 10.5924 -0.524583 -2.23212
            CHANNELS 6 Xposition Yposition Zposition Zrotation Xrotation Yrotation
            JOINT LeftForeArm
            {
              OFFSET 27.8415 -8.94286e-05 3.74589e-05
              CHANNELS 6 Xposition Yposition Zposition Zrotation Xrotation Yrotation
              JOINT LeftHand
              {
                OFFSET 28.3288 -1.74407e-05 3.78045e-05
                CHANNELS 6 Xposition Yposition Zposition Zrotation Xrotation Yrotation
                JOINT LeftHandThumb1
                {
                  OFFSET 2.46614 -1.57505 2.68241
                  CHANNELS 6 Xposition Yposition Zposition Zrotation Xrotation Yrotation
                  JOINT LeftHandThumb2
                  {
                    OFFSET 3.2298 -1.86469 1.86468
                    CHANNELS 6 Xposition Yposition Zposition Zrotation Xrotation Yrotation
                    JOINT LeftHandThumb3
                    {
                      OFFSET 2.65257 -1.53149 1.53147
                      CHANNELS 6 Xposition Yposition Zposition Zrotation Xrotation Yrotation
                      End Site
                      {
                        OFFSET 1.95457 -1.1285 1.12849
                      }
                    }
                  }
                }
                JOINT LeftHandIndex1
                {
                  OFFSET 9.1093 -0.517083 2.26007
                  CHANNELS 6 Xposition Yposition Zposition Zrotation Xrotation Yrotation
                  JOINT LeftHandIndex2
                  {
                    OFFSET 3.67641 0 2.92425e-05
                    CHANNELS 6 Xposition Yposition Zposition Zrotation Xrotation Yrotation
                    JOINT LeftHandIndex3
                    {
                      OFFSET 2.88306 3.8512e-05 -4.27648e-05
                      CHANNELS 6 Xposition Yposition Zposition Zrotation Xrotation Yrotation
                      End Site
                      {
                        OFFSET 2.39272 3.70259e-05 3.35544e-05
                      }
                    }
                  }
                }
                JOINT LeftHandMiddle1
                {
                  OFFSET 9.5334 -3.3924e-05 1.3937e-05
                  CHANNELS 6 Xposition Yposition Zposition Zrotation Xrotation Yrotation
                  JOINT LeftHandMiddle2
                  {
                    OFFSET 3.69824 0 1.7917e-05
                    CHANNELS 6 Xposition Yposition Zposition Zrotation Xrotation Yrotation
                    JOINT LeftHandMiddle3
                    {
                      OFFSET 2.95092 -3.93761e-05 1.6448e-05
                      CHANNELS 6 Xposition Yposition Zposition Zrotation Xrotation Yrotation
                      End Site
                      {
                        OFFSET 2.8339 -3.89348e-05 0
                      }
                    }
                  }
                }
                JOINT LeftHandRing1
                {
                  OFFSET 9.10453 -0.0439395 -1.86508
                  CHANNELS 6 Xposition Yposition Zposition Zrotation Xrotation Yrotation
                  JOINT LeftHandRing2
                  {
                    OFFSET 3.15403 0 1.04257e-05
                    CHANNELS 6 Xposition Yposition Zposition Zrotation Xrotation Yrotation
                    JOINT LeftHandRing3
                    {
                      OFFSET 2.93767 -4.54586e-05 0
                      CHANNELS 6 Xposition Yposition Zposition Zrotation Xrotation Yrotation
                      End Site
                      {
                        OFFSET 2.64745 -4.98044e-05 0
                      }
                    }
                  }
                }
                JOINT LeftHandPinky1
                {
                  OFFSET 8.07778 -0.488668 -3.80607
                  CHANNELS 6 Xposition Yposition Zposition Zrotation Xrotation Yrotation
                  JOINT LeftHandPinky2
                  {
                    OFFSET 3.60003 0 -2.62388e-05
                    CHANNELS 6 Xposition Yposition Zposition Zrotation Xrotation Yrotation
                    JOINT LeftHandPinky3
                    {
                      OFFSET 2.11421 1.95383e-05 0
                      CHANNELS 6 Xposition Yposition Zposition Zrotation Xrotation Yrotation
                      End Site
                      {
                        OFFSET 1.97568 1.24057e-05 -4.43014e-05
                      }
                    }
                  }
                }
              }
            }
          }
        }
        JOINT RightShoulder
        {
          OFFSET -4.56997 10.9462 -2.62802
          CHANNELS 6 Xposition Yposition Zposition Zrotation Xrotation Yrotation
          JOINT RightArm
          {
            OFFSET -10.5928 -0.524798 -2.2321
            CHANNELS 6 Xposition Yposition Zposition Zrotation Xrotation Yrotation
            JOINT RightForeArm
            {
              OFFSET -27.8415 -3.30792e-05 1.16763e-05
              CHANNELS 6 Xposition Yposition Zposition Zrotation Xrotation Yrotation
              JOINT RightHand
              {
                OFFSET -28.3288 0 5.5816e-05
                CHANNELS 6 Xposition Yposition Zposition Zrotation Xrotation Yrotation
                JOINT RightHandPinky1
                {
                  OFFSET -8.07667 -0.488459 -3.80601
                  CHANNELS 6 Xposition Yposition Zposition Zrotation Xrotation Yrotation
                  JOINT RightHandPinky2
                  {
                    OFFSET -3.60003 3.96767e-05 5.08144e-05
                    CHANNELS 6 Xposition Yposition Zposition Zrotation Xrotation Yrotation
                    JOINT RightHandPinky3
                    {
                      OFFSET -2.11421 1.51379e-05 1.47938e-05
                      CHANNELS 6 Xposition Yposition Zposition Zrotation Xrotation Yrotation
                      End Site
                      {
                        OFFSET -1.97568 -1.8522e-05 0
                      }
                    }
                  }
                }
                JOINT RightHandRing1
                {
                  OFFSET -9.10359 -0.0439143 -1.86507
                  CHANNELS 6 Xposition Yposition Zposition Zrotation Xrotation Yrotation
                  JOINT RightHandRing2
                  {
                    OFFSET -3.15403 2.39973e-05 4.88512e-05
                    CHANNELS 6 Xposition Yposition Zposition Zrotation Xrotation Yrotation
                    JOINT RightHandRing3
                    {
                      OFFSET -2.93767 -4.16007e-05 -3.96606e-05
                      CHANNELS 6 Xposition Yposition Zposition Zrotation Xrotation Yrotation
                      End Site
                      {
                        OFFSET -2.64745 2.46082e-05 0
                      }
                    }
                  }
                }
                JOINT RightHandMiddle1
                {
                  OFFSET -9.5325 -1.63123e-05 1.67918e-05
                  CHANNELS 6 Xposition Yposition Zposition Zrotation Xrotation Yrotation
                  JOINT RightHandMiddle2
                  {
                    OFFSET -3.69824 1.5067e-05 -2.25455e-05
                    CHANNELS 6 Xposition Yposition Zposition Zrotation Xrotation Yrotation
                    JOINT RightHandMiddle3
                    {
                      OFFSET -2.95092 0 0
                      CHANNELS 6 Xposition Yposition Zposition Zrotation Xrotation Yrotation
                      End Site
                      {
                        OFFSET -2.8339 0 5.37877e-05
                      }
                    }
                  }
                }
                JOINT RightHandIndex1
                {
                  OFFSET -9.10828 -0.516789 2.26012
                  CHANNELS 6 Xposition Yposition Zposition Zrotation Xrotation Yrotation
                  JOINT RightHandIndex2
                  {
                    OFFSET -3.67641 1.92272e-05 3.23557e-05
                    CHANNELS 6 Xposition Yposition Zposition Zrotation Xrotation Yrotation
                    JOINT RightHandIndex3
                    {
                      OFFSET -2.88306 -4.96012e-05 4.0449e-05
                      CHANNELS 6 Xposition Yposition Zposition Zrotation Xrotation Yrotation
                      End Site
                      {
                        OFFSET -2.39272 2.68147e-05 2.80201e-05
                      }
                    }
                  }
                }
                JOINT RightHandThumb1
                {
                  OFFSET -2.46481 -1.57271 2.68263
                  CHANNELS 6 Xposition Yposition Zposition Zrotation Xrotation Yrotation
                  JOINT RightHandThumb2
                  {
                    OFFSET -3.22977 -1.86471 1.86472
                    CHANNELS 6 Xposition Yposition Zposition Zrotation Xrotation Yrotation
                    JOINT RightHandThumb3
                    {
                      OFFSET -2.65261 -1.53145 1.53145
                      CHANNELS 6 Xposition Yposition Zposition Zrotation Xrotation Yrotation
                      End Site
                      {
                        OFFSET -1.95458 -1.12846 1.12851
                      }
                    }
                  }
                }
              }
            }
          }
        }
      }
    }
  }
  JOINT LeftUpLeg
  {
    OFFSET 8.20778 -6.75171 -1.59956
    CHANNELS 6 Xposition Yposition Zposition Zrotation Xrotation Yrotation
    JOINT LeftLeg
    {
      OFFSET 0 -44.3705 0.284643
      CHANNELS 6 Xposition Yposition Zposition Zrotation Xrotation Yrotation
      JOINT LeftFoot
      {
        OFFSET 0 -44.4279 -2.98219
        CHANNELS 6 Xposition Yposition Zposition Zrotation Xrotation Yrotation
        JOINT LeftToeBase
        {
          OFFSET 0 -8.72867 10.7106
          CHANNELS 6 Xposition Yposition Zposition Zrotation Xrotation Yrotation
          End Site
          {
            OFFSET 0 -0.000676683 9.27814
          }
        }
      }
    }
  }
  JOINT RightUpLeg
  {
    OFFSET -8.2078 -6.75166 -1.59956
    CHANNELS 6 Xposition Yposition Zposition Zrotation Xrotation Yrotation
    JOINT RightLeg
    {
      OFFSET 0 -44.3705 0.286156
      CHANNELS 6 Xposition Yposition Zposition Zrotation Xrotation Yrotation
      JOINT RightFoot
      {
        OFFSET 0 -44.4277 -2.98379
        CHANNELS 6 Xposition Yposition Zposition Zrotation Xrotation Yrotation
        JOINT RightToeBase
        {
          OFFSET 0 -8.72867 10.7106
          CHANNELS 6 Xposition Yposition Zposition Zrotation Xrotation Yrotation
          End Site
          {
            OFFSET 0 -0.000676369 9.27812
          }
        }
      }
    }
  }
}
MOTION
Frames:	4
Frame Time:	0.0333333
0.0421244 104.207 2.34514 -0.0420073 -2.75565 0.46937 9.23415e-06 10.1816 0.131521 -0.720472 0.703452 -0.0813474 2.5194e-07 10.0835 -1.0008 -1.08831 1.40557 -0.176027 3.45749e-07 9.10001 -1.37342 -1.08829 1.40544 -0.17708 6.33429e-07 16.6717 -2.51617 3.05766 1.72888 -0.597669 -4.24232e-07 9.61788 1.68501 2.63076 -0.917478 1.18842 -6.50824e-07 17.8152 2.58499 1.27346e-16 3.97569e-16 -9.93923e-17 3.06756 6.40951 9.28355 1.27346e-16 3.97569e-16 -9.93923e-17 -3.06755 6.4095 9.28355 1.27346e-16 3.97569e-16 -9.93923e-17 4.57045 10.946 -2.62799 -12 1.58959 -1.92022 10.5924 -0.524583 -2.23212 -63.4251 43.8199 -6.32811 27.8415 -8.94286e-05 3.74589e-05 -0.000192131 1.97657e-06 -13.8347 28.3288 -1.74407e-05 3.78045e-05 11.2959 -18.7114 8.77287 2.46614 -1.57505 2.68241 11.5375 -0.49605 9.69177 3.2298 -1.86469 1.86468 -1.47745 1.75328 25.6132 2.65257 -1.53149 1.53147 5.04612 -0.58744 4.38989 9.1093 -0.517083 2.26007 -19.3542 -0.389423 2.28343 3.67641 -6.93914e-06 2.92425e-05 -19.3543 -0.389422 2.28342 2.88306 3.8512e-05 -4.27648e-05 -16.7123 -0.29104 1.98122 9.5334 -3.3924e-05 1.3937e-05 -28.4794 -0.834221 3.28642 3.69824 1.96136e-06 1.7917e-05 -28.5113 -0.836057 3.28978 2.95092 -3.93761e-05 1.6448e-05 -25.8554 -0.689998 3.00536 9.10453 -0.0439395 -1.86508 -37.7473 -1.44347 4.22067 3.15403 -6.55347e-06 1.04257e-05 -37.7473 -1.44346 4.22066 2.93767 -4.54586e-05 -6.86476e-06 -35.1096 -1.25474 3.96489 8.07778 -0.488668 -3.80607 -44.4294 -1.95424 8.94307 3.60003 -2.25222e-06 -2.62388e-05 -45.4717 0.862349 2.01435 2.11421 1.95383e-05 -2.86442e-06 -42.2982 -1.79614 4.64079 -4.56997 10.9462 -2.62802 12 -0.695587 -5.11587 -10.5928 -0.524798 -2.2321 56.0221 57.1499 12.0607 -27.8415 -3.30792e-05 1.16763e-05 6.55836e-06 5.57104e-06 21.0153 -28.3288 -1.58142e-07 5.5816e-05 -10.1787 -29.7326 -4.44123 -8.07667 -0.488459 -3.80601 10.5105 -0.116706 -1.27048 -3.60003 3.96767e-05 5.08144e-05 10.5105 -0.116425 -1.26731 -2.11421 1.51379e-05 1.47938e-05 5.25555 -0.0292475 -0.637117 -9.10359 -0.0439143 -1.86507 10.5105 -0.116706 -1.26888 -3.15403 2.39973e-05 4.88512e-05 10.5105 -0.116717 -1.26888 -2.93767 -4.16007e-05 -3.96606e-05 5.25555 -0.0292475 -0.637117 -9.5325 -1.63123e-05 1.67918e-05 10.5105 -0.116706 -1.26888 -3.69824 1.5067e-05 -2.25455e-05 10.5105 -0.116717 -1.26888 -2.95092 -3.11325e-07 -3.03403e-07 5.25555 -0.0292469 -0.639139 -9.10828 -0.516789 2.26012 10.5105 -0.116706 -1.26888 -3.67641 1.92272e-05 3.23557e-05 10.5105 -0.116717 -1.26888 -2.88306 -4.96012e-05 4.0449e-05 5.25555 -0.0292475 -0.637117 -2.46481 -1.57271 2.68263 -12.2536 -0.996898 -7.64472 -3.22977 -1.86471 1.86472 -5.94176 5.40755 -18.1242 -2.65261 -1.53145 1.53145 -5.09669 -1.15557 -4.90541 8.20778 -6.75171 -1.59956 0.713131 -0.931917 2.5343 -4.11016e-07 -44.3705 0.284643 -0.0612067 4.58057 -4.07894 4.71639e-07 -44.4279 -2.98219 -0.487694 -0.89062 0.0491857 -2.96099e-06 -8.72867 10.7106 -8.0593e-08 -0.523879 -6.99482e-07 -8.2078 -6.75166 -1.59956 -0.345619 -0.885789 -7.92641 8.43557e-08 -44.3705 0.286156 -1.78701 4.97624 3.92863 9.64458e-07 -44.4277 -2.98379 2.43139 -1.42561 -0.109452 -2.36044e-06 -8.72867 10.7106 9.92887e-07 -0.257919 -2.58395e-06 
0.0446039 104.21 2.37275 -0.0449358 -2.78261 0.439959 9.23415e-06 10.1816 0.131521 -0.719193 0.709364 -0.0808778 2.5194e-07 10.0835 -1.0008 -1.09351 1.42176 -0.162133 3.45749e-07 9.10001 -1.37342 -1.09349 1.42164 -0.163194 6.33429e-07 16.6717 -2.51617 3.0758 1.72938 -0.600369 -4.24232e-07 9.61788 1.68501 2.6332 -0.906466 1.1826 -6.50824e-07 17.8152 2.58499 9.27144e-16 -1.98785e-16 4.96962e-17 3.06756 6.40951 9.28355 9.27144e-16 -1.98785e-16 4.96962e-17 -3.06755 6.4095 9.28355 9.27144e-16 -1.98785e-16 4.96962e-17 4.57045 10.946 -2.62799 -12 1.60073 -1.9544 10.5924 -0.524583 -2.23212 -63.3885 43.7498 -6.33976 27.8415 -8.94286e-05 3.74589e-05 -0.000208835 -2.05497e-06 -13.8861 28.3288 -1.74407e-05 3.78045e-05 11.1379 -18.8042 8.67304 2.46614 -1.57505 2.68241 11.5375 -0.49605 9.69177 3.2298 -1.86469 1.86468 -1.47745 1.75328 25.6132 2.65257 -1.53149 1.53147 5.04612 -0.58744 4.38989 9.1093 -0.517083 2.26007 -19.3542 -0.389423 2.28343 3.67641 -6.93914e-06 2.92425e-05 -19.3543 -0.389422 2.28342 2.88306 3.8512e-05 -4.27648e-05 -16.7123 -0.29104 1.98122 9.5334 -3.3924e-05 1.3937e-05 -28.4794 -0.834221 3.28642 3.69824 1.96136e-06 1.7917e-05 -28.5113 -0.836057 3.28978 2.95092 -3.93761e-05 1.6448e-05 -25.8554 -0.689998 3.00536 9.10453 -0.0439395 -1.86508 -37.7473 -1.44347 4.22067 3.15403 -6.55347e-06 1.04257e-05 -37.7473 -1.44346 4.22066 2.93767 -4.54586e-05 -6.86476e-06 -35.1096 -1.25474 3.96489 8.07778 -0.488668 -3.80607 -44.4294 -1.95424 8.94307 3.60003 -2.25222e-06 -2.62388e-05 -45.4717 0.862349 2.01435 2.11421 1.95383e-05 -2.86442e-06 -42.2982 -1.79614 4.64079 -4.56997 10.9462 -2.62802 12 -0.708233 -5.14261 -10.5928 -0.524798 -2.2321 55.9484 57.2403 12.139 -27.8415 -3.30792e-05 1.16763e-05 -8.25229e-06 -1.23258e-05 21.0015 -28.3288 -1.58142e-07 5.5816e-05 -10.2448 -29.777 -4.50783 -8.07667 -0.488459 -3.80601 10.5105 -0.116721 -1.27048 -3.60003 3.96767e-05 5.08144e-05 10.5105 -0.116422 -1.26732 -2.11421 1.51379e-05 1.47938e-05 5.25557 -0.0292383 -0.637113 -9.10359 -0.0439143 -1.86507 10.5105 -0.116725 -1.26888 -3.15403 2.39973e-05 4.88512e-05 10.5105 -0.116709 -1.2689 -2.93767 -4.16007e-05 -3.96606e-05 5.25557 -0.0292383 -0.637113 -9.5325 -1.63123e-05 1.67918e-05 10.5105 -0.116725 -1.26888 -3.69824 1.5067e-05 -2.25455e-05 10.5105 -0.116709 -1.2689 -2.95092 -3.11324e-07 -3.03403e-07 5.25557 -0.0292406 -0.639134 -9.10828 -0.516789 2.26012 10.5105 -0.116725 -1.26888 -3.67641 1.92272e-05 3.23557e-05 10.5105 -0.116709 -1.2689 -2.88306 -4.96012e-05 4.0449e-05 5.25557 -0.0292383 -0.637113 -2.46481 -1.57271 2.68263 -12.2536 -0.996897 -7.64472 -3.22977 -1.86471 1.86472 -5.94174 5.40754 -18.1242 -2.65261 -1.53145 1.53145 -5.09666 -1.15557 -4.90541 8.20778 -6.75171 -1.59956 0.708492 -0.870798 2.56537 -4.11016e-07 -44.3705 0.284643 -0.0492746 4.55719 -4.08204 4.71639e-07 -44.4279 -2.98219 -0.490228 -0.898676 0.0490805 -2.96099e-06 -8.72867 10.7106 -1.97727e-07 -0.522049 1.20909e-06 -8.2078 -6.75166 -1.59956 -0.347574 -0.823126 -7.89678 8.43557e-08 -44.3705 0.286156 -1.77455 4.94016 3.92974 9.64458e-07 -44.4277 -2.98379 2.42848 -1.42269 -0.109417 -2.36044e-06 -8.72867 10.7106 1.56595e-06 -0.256828 -5.76422e-06 
0.0410483 104.211 2.39826 -0.0482662 -2.80856 0.400693 9.23415e-06 10.1816 0.131521 -0.716398 0.716767 -0.0800128 2.5194e-07 10.0835 -1.0008 -1.09039 1.43625 -0.151141 3.45749e-07 9.10001 -1.37342 -1.09037 1.43614 -0.152219 6.33429e-07 16.6717 -2.51617 3.08215 1.72787 -0.605073 -4.24232e-07 9.61788 1.68501 2.63474 -0.8784 1.17305 -6.50824e-07 17.8152 2.58499 4.92303e-16 -3.97569e-16 -0 3.06756 6.40951 9.28355 4.92303e-16 -3.97569e-16 -0 -3.06755 6.4095 9.28355 4.92303e-16 -3.97569e-16 -0 4.57045 10.946 -2.62799 -12 1.60645 -1.96356 10.5924 -0.524583 -2.23212 -63.3734 43.7314 -6.38422 27.8415 -8.94286e-05 3.74589e-05 -0.000200274 -1.4395e-07 -13.9016 28.3288 -1.74407e-05 3.78045e-05 11.0425 -18.9109 8.61135 2.46614 -1.57505 2.68241 11.5375 -0.49605 9.69177 3.2298 -1.86469 1.86468 -1.47745 1.75328 25.6132 2.65257 -1.53149 1.53147 5.04612 -0.58744 4.38989 9.1093 -0.517083 2.26007 -19.3542 -0.389423 2.28343 3.67641 -6.93914e-06 2.92425e-05 -19.3543 -0.389422 2.28342 2.88306 3.8512e-05 -4.27648e-05 -16.7123 -0.29104 1.98122 9.5334 -3.3924e-05 1.3937e-05 -28.4794 -0.834221 3.28642 3.69824 1.96136e-06 1.7917e-05 -28.5113 -0.836057 3.28978 2.95092 -3.93761e-05 1.6448e-05 -25.8554 -0.689998 3.00536 9.10453 -0.0439395 -1.86508 -37.7473 -1.44347 4.22067 3.15403 -6.55347e-06 1.04257e-05 -37.7473 -1.44346 4.22066 2.93767 -4.54586e-05 -6.86476e-06 -35.1096 -1.25474 3.96489 8.07778 -0.488668 -3.80607 -44.4294 -1.95424 8.94307 3.60003 -2.25222e-06 -2.62388e-05 -45.4717 0.862349 2.01435 2.11421 1.95383e-05 -2.86442e-06 -42.2982 -1.79614 4.64079 -4.56997 10.9462 -2.62802 12 -0.711902 -5.15084 -10.5928 -0.524798 -2.2321 55.8854 57.2886 12.2063 -27.8415 -3.30792e-05 1.16763e-05 -1.78514e-05 -1.6255e-06 20.9771 -28.3288 -1.58142e-07 5.5816e-05 -10.2936 -29.8168 -4.56824 -8.07667 -0.488459 -3.80601 10.5105 -0.116715 -1.27048 -3.60003 3.96767e-05 5.08144e-05 10.5105 -0.116413 -1.26732 -2.11421 1.51379e-05 1.47938e-05 5.25556 -0.0292435 -0.637125 -9.10359 -0.0439143 -1.86507 10.5105 -0.116716 -1.26888 -3.15403 2.39973e-05 4.88512e-05 10.5105 -0.116703 -1.26888 -2.93767 -4.16007e-05 -3.96606e-05 5.25556 -0.0292435 -0.637125 -9.5325 -1.63123e-05 1.67918e-05 10.5105 -0.116716 -1.26888 -3.69824 1.5067e-05 -2.25455e-05 10.5105 -0.116703 -1.26888 -2.95092 -3.11324e-07 -3.03403e-07 5.25556 -0.0292425 -0.639145 -9.10828 -0.516789 2.26012 10.5105 -0.116716 -1.26888 -3.67641 1.92272e-05 3.23557e-05 10.5105 -0.116703 -1.26888 -2.88306 -4.96012e-05 4.0449e-05 5.25556 -0.0292435 -0.637125 -2.46481 -1.57271 2.68263 -12.2536 -0.996898 -7.64473 -3.22977 -1.86471 1.86472 -5.94174 5.40753 -18.1242 -2.65261 -1.53145 1.53145 -5.09668 -1.15557 -4.9054 8.20778 -6.75171 -1.59956 0.711562 -0.834286 2.58707 -4.11016e-07 -44.3705 0.284643 -0.0461526 4.57922 -4.05027 4.71639e-07 -44.4279 -2.98219 -0.491379 -0.923099 0.0489702 -2.96099e-06 -8.72867 10.7106 1.14106e-07 -0.516457 1.34886e-06 -8.2078 -6.75166 -1.59956 -0.341085 -0.771572 -7.87518 8.43557e-08 -44.3705 0.286156 -1.77303 4.91782 3.94228 9.64458e-07 -44.4277 -2.98379 2.42641 -1.42814 -0.109382 -2.36044e-06 -8.72867 10.7106 2.20214e-07 -0.256623 -4.14613e-06 
0.0393156 104.211 2.41719 -0.0502195 -2.80612 0.366292 9.23415e-06 10.1816 0.131521 -0.703295 0.71928 -0.07865 2.5194e-07 10.0835 -1.0008 -1.06823 1.44291 -0.153859 3.45749e-07 9.10001 -1.37342 -1.06821 1.44279 -0.15493 6.33429e-07 16.6717 -2.51617 3.04833 1.71586 -0.592275 -4.24232e-07 9.61788 1.68501 2.61566 -0.820202 1.18025 -6.50824e-07 17.8152 2.58499 1.9102e-16 5.96354e-16 -0 3.06756 6.40951 9.28355 1.9102e-16 5.96354e-16 -0 -3.06755 6.4095 9.28355 1.9102e-16 5.96354e-16 -0 4.57045 10.946 -2.62799 -12 1.60949 -1.96553 10.5924 -0.524583 -2.23212 -63.3655 43.7345 -6.45478 27.8415 -8.94286e-05 3.74589e-05 -0.000202402 -2.1408e-06 -13.8732 28.3288 -1.74407e-05 3.78045e-05 10.9747 -19.0739 8.53582 2.46614 -1.57505 2.68241 11.5375 -0.49605 9.69177 3.2298 -1.86469 1.86468 -1.47745 1.75328 25.6132 2.65257 -1.53149 1.53147 5.04612 -0.58744 4.38989 9.1093 -0.517083 2.26007 -19.3542 -0.389423 2.28343 3.67641 -6.93914e-06 2.92425e-05 -19.3543 -0.389422 2.28342 2.88306 3.8512e-05 -4.27648e-05 -16.7123 -0.29104 1.98122 9.5334 -3.3924e-05 1.3937e-05 -28.4794 -0.834221 3.28642 3.69824 1.96136e-06 1.7917e-05 -28.5113 -0.836057 3.28978 2.95092 -3.93761e-05 1.6448e-05 -25.8554 -0.689998 3.00536 9.10453 -0.0439395 -1.86508 -37.7473 -1.44347 4.22067 3.15403 -6.55347e-06 1.04257e-05 -37.7473 -1.44346 4.22066 2.93767 -4.54586e-05 -6.86476e-06 -35.1096 -1.25474 3.96489 8.07778 -0.488668 -3.80607 -44.4294 -1.95424 8.94307 3.60003 -2.25222e-06 -2.62388e-05 -45.4717 0.862349 2.01435 2.11421 1.95383e-05 -2.86442e-06 -42.2982 -1.79614 4.64079 -4.56997 10.9462 -2.62802 12 -0.693393 -5.11361 -10.5928 -0.524798 -2.2321 55.783 57.2829 12.3043 -27.8415 -3.30792e-05 1.16763e-05 5.47555e-06 -8.15717e-06 20.9071 -28.3288 -1.58142e-07 5.5816e-05 -10.2998 -29.814 -4.52969 -8.07667 -0.488459 -3.80601 10.5105 -0.116719 -1.27047 -3.60003 3.96767e-05 5.08144e-05 10.5105 -0.116425 -1.26732 -2.11421 1.51379e-05 1.47938e-05 5.25557 -0.0292399 -0.637115 -9.10359 -0.0439143 -1.86507 10.5105 -0.116718 -1.26888 -3.15403 2.39973e-05 4.88512e-05 10.5105 -0.116717 -1.26889 -2.93767 -4.16007e-05 -3.96606e-05 5.25557 -0.0292399 -0.637115 -9.5325 -1.63123e-05 1.67918e-05 10.5105 -0.116718 -1.26888 -3.69824 1.5067e-05 -2.25455e-05 10.5105 -0.116717 -1.26889 -2.95092 -3.11324e-07 -3.03403e-07 5.25558 -0.0292392 -0.639136 -9.10828 -0.516789 2.26012 10.5105 -0.116718 -1.26888 -3.67641 1.92272e-05 3.23557e-05 10.5105 -0.116717 -1.26889 -2.88306 -4.96012e-05 4.0449e-05 5.25557 -0.0292399 -0.637115 -2.46481 -1.57271 2.68263 -12.2536 -0.996895 -7.64473 -3.22977 -1.86471 1.86472 -5.94171 5.40753 -18.1242 -2.65261 -1.53145 1.53145 -5.09667 -1.15557 -4.9054 8.20778 -6.75171 -1.59956 0.705527 -0.828144 2.58417 -4.11016e-07 -44.3705 0.284643 -0.0340413 4.59115 -3.98419 4.71639e-07 -44.4279 -2.98219 -0.501857 -0.938828 0.0488346 -2.96099e-06 -8.72867 10.7106 1.00121e-07 -0.50891 -1.44378e-06 -8.2078 -6.75166 -1.59956 -0.337455 -0.760888 -7.90471 8.43557e-08 -44.3705 0.286156 -1.77717 4.90661 4.00106 9.64458e-07 -44.4277 -2.98379 2.42673 -1.43102 -0.109566 -2.36044e-06 -8.72867 10.7106 -5.2897e-07 -0.25492 2.27505e-07 
